<mxfile host="app.diagrams.net" modified="2023-11-13T11:54:29.750Z" agent="Mozilla/5.0 (Macintosh; Intel Mac OS X 10_15_7) AppleWebKit/537.36 (KHTML, like Gecko) Chrome/119.0.0.0 Safari/537.36" etag="1j5JvDxvgCpXS--SmEJi" version="22.1.0" type="github">
  <diagram id="C5RBs43oDa-KdzZeNtuy" name="Page-1">
    <mxGraphModel dx="2415" dy="894" grid="1" gridSize="10" guides="1" tooltips="1" connect="1" arrows="1" fold="1" page="1" pageScale="1" pageWidth="827" pageHeight="1169" math="0" shadow="0">
      <root>
        <mxCell id="WIyWlLk6GJQsqaUBKTNV-0" />
        <mxCell id="WIyWlLk6GJQsqaUBKTNV-1" parent="WIyWlLk6GJQsqaUBKTNV-0" />
        <mxCell id="WIyWlLk6GJQsqaUBKTNV-2" value="" style="rounded=0;html=1;jettySize=auto;orthogonalLoop=1;fontSize=11;endArrow=block;endFill=0;endSize=8;strokeWidth=1;shadow=0;labelBackgroundColor=none;edgeStyle=orthogonalEdgeStyle;" parent="WIyWlLk6GJQsqaUBKTNV-1" source="WIyWlLk6GJQsqaUBKTNV-3" target="WIyWlLk6GJQsqaUBKTNV-6" edge="1">
          <mxGeometry relative="1" as="geometry" />
        </mxCell>
        <mxCell id="WIyWlLk6GJQsqaUBKTNV-3" value="&lt;br&gt;To Do App" style="rounded=1;whiteSpace=wrap;html=1;fontSize=12;glass=0;strokeWidth=1;shadow=0;shape=ellipse;perimeter=ellipsePerimeter;" parent="WIyWlLk6GJQsqaUBKTNV-1" vertex="1">
          <mxGeometry x="-465" y="20" width="120" height="40" as="geometry" />
        </mxCell>
        <mxCell id="G9btN0Gx6x8trBFtPTSD-2" value="" style="edgeStyle=orthogonalEdgeStyle;rounded=0;orthogonalLoop=1;jettySize=auto;html=1;" edge="1" parent="WIyWlLk6GJQsqaUBKTNV-1" source="WIyWlLk6GJQsqaUBKTNV-6" target="G9btN0Gx6x8trBFtPTSD-1">
          <mxGeometry relative="1" as="geometry" />
        </mxCell>
        <mxCell id="G9btN0Gx6x8trBFtPTSD-4" value="" style="edgeStyle=orthogonalEdgeStyle;rounded=0;orthogonalLoop=1;jettySize=auto;html=1;" edge="1" parent="WIyWlLk6GJQsqaUBKTNV-1" source="WIyWlLk6GJQsqaUBKTNV-6" target="G9btN0Gx6x8trBFtPTSD-3">
          <mxGeometry relative="1" as="geometry" />
        </mxCell>
        <mxCell id="G9btN0Gx6x8trBFtPTSD-6" value="" style="edgeStyle=orthogonalEdgeStyle;rounded=0;orthogonalLoop=1;jettySize=auto;html=1;" edge="1" parent="WIyWlLk6GJQsqaUBKTNV-1" source="WIyWlLk6GJQsqaUBKTNV-6" target="G9btN0Gx6x8trBFtPTSD-5">
          <mxGeometry relative="1" as="geometry" />
        </mxCell>
        <mxCell id="WIyWlLk6GJQsqaUBKTNV-6" value="What would you like to do?" style="rhombus;whiteSpace=wrap;html=1;shadow=0;fontFamily=Helvetica;fontSize=12;align=center;strokeWidth=1;spacing=6;spacingTop=-4;" parent="WIyWlLk6GJQsqaUBKTNV-1" vertex="1">
          <mxGeometry x="-465" y="110" width="120" height="100" as="geometry" />
        </mxCell>
        <mxCell id="G9btN0Gx6x8trBFtPTSD-22" value="" style="edgeStyle=orthogonalEdgeStyle;rounded=0;orthogonalLoop=1;jettySize=auto;html=1;" edge="1" parent="WIyWlLk6GJQsqaUBKTNV-1" source="G9btN0Gx6x8trBFtPTSD-1" target="G9btN0Gx6x8trBFtPTSD-21">
          <mxGeometry relative="1" as="geometry" />
        </mxCell>
        <mxCell id="G9btN0Gx6x8trBFtPTSD-24" value="" style="edgeStyle=orthogonalEdgeStyle;rounded=0;orthogonalLoop=1;jettySize=auto;html=1;" edge="1" parent="WIyWlLk6GJQsqaUBKTNV-1" source="G9btN0Gx6x8trBFtPTSD-1" target="G9btN0Gx6x8trBFtPTSD-23">
          <mxGeometry relative="1" as="geometry" />
        </mxCell>
        <mxCell id="G9btN0Gx6x8trBFtPTSD-26" value="" style="edgeStyle=orthogonalEdgeStyle;rounded=0;orthogonalLoop=1;jettySize=auto;html=1;" edge="1" parent="WIyWlLk6GJQsqaUBKTNV-1" source="G9btN0Gx6x8trBFtPTSD-1" target="G9btN0Gx6x8trBFtPTSD-25">
          <mxGeometry relative="1" as="geometry" />
        </mxCell>
        <mxCell id="G9btN0Gx6x8trBFtPTSD-28" value="" style="edgeStyle=orthogonalEdgeStyle;rounded=0;orthogonalLoop=1;jettySize=auto;html=1;" edge="1" parent="WIyWlLk6GJQsqaUBKTNV-1" source="G9btN0Gx6x8trBFtPTSD-1" target="G9btN0Gx6x8trBFtPTSD-27">
          <mxGeometry relative="1" as="geometry" />
        </mxCell>
        <mxCell id="G9btN0Gx6x8trBFtPTSD-32" value="" style="edgeStyle=orthogonalEdgeStyle;rounded=0;orthogonalLoop=1;jettySize=auto;html=1;" edge="1" parent="WIyWlLk6GJQsqaUBKTNV-1" source="G9btN0Gx6x8trBFtPTSD-1" target="G9btN0Gx6x8trBFtPTSD-31">
          <mxGeometry relative="1" as="geometry" />
        </mxCell>
        <mxCell id="G9btN0Gx6x8trBFtPTSD-1" value="View Todos" style="whiteSpace=wrap;html=1;shadow=0;strokeWidth=1;spacing=6;spacingTop=-4;" vertex="1" parent="WIyWlLk6GJQsqaUBKTNV-1">
          <mxGeometry x="-345" y="420" width="120" height="60" as="geometry" />
        </mxCell>
        <mxCell id="G9btN0Gx6x8trBFtPTSD-3" value="Create new todo" style="whiteSpace=wrap;html=1;shadow=0;strokeWidth=1;spacing=6;spacingTop=-4;" vertex="1" parent="WIyWlLk6GJQsqaUBKTNV-1">
          <mxGeometry x="-180" y="260" width="120" height="60" as="geometry" />
        </mxCell>
        <mxCell id="G9btN0Gx6x8trBFtPTSD-35" value="" style="edgeStyle=orthogonalEdgeStyle;rounded=0;orthogonalLoop=1;jettySize=auto;html=1;" edge="1" parent="WIyWlLk6GJQsqaUBKTNV-1" source="G9btN0Gx6x8trBFtPTSD-5" target="G9btN0Gx6x8trBFtPTSD-34">
          <mxGeometry relative="1" as="geometry" />
        </mxCell>
        <mxCell id="G9btN0Gx6x8trBFtPTSD-38" value="" style="edgeStyle=orthogonalEdgeStyle;rounded=0;orthogonalLoop=1;jettySize=auto;html=1;" edge="1" parent="WIyWlLk6GJQsqaUBKTNV-1" source="G9btN0Gx6x8trBFtPTSD-5" target="G9btN0Gx6x8trBFtPTSD-37">
          <mxGeometry relative="1" as="geometry">
            <Array as="points">
              <mxPoint x="-680" y="450" />
              <mxPoint x="-760" y="450" />
            </Array>
          </mxGeometry>
        </mxCell>
        <mxCell id="G9btN0Gx6x8trBFtPTSD-40" value="" style="edgeStyle=orthogonalEdgeStyle;rounded=0;orthogonalLoop=1;jettySize=auto;html=1;" edge="1" parent="WIyWlLk6GJQsqaUBKTNV-1" source="G9btN0Gx6x8trBFtPTSD-5" target="G9btN0Gx6x8trBFtPTSD-39">
          <mxGeometry relative="1" as="geometry">
            <Array as="points">
              <mxPoint x="-680" y="450" />
              <mxPoint x="-600" y="450" />
            </Array>
          </mxGeometry>
        </mxCell>
        <mxCell id="G9btN0Gx6x8trBFtPTSD-5" value="Update Todo" style="whiteSpace=wrap;html=1;shadow=0;strokeWidth=1;spacing=6;spacingTop=-4;" vertex="1" parent="WIyWlLk6GJQsqaUBKTNV-1">
          <mxGeometry x="-740" y="260" width="120" height="60" as="geometry" />
        </mxCell>
        <mxCell id="G9btN0Gx6x8trBFtPTSD-11" value="" style="edgeStyle=orthogonalEdgeStyle;rounded=0;orthogonalLoop=1;jettySize=auto;html=1;" edge="1" parent="WIyWlLk6GJQsqaUBKTNV-1" source="G9btN0Gx6x8trBFtPTSD-9" target="G9btN0Gx6x8trBFtPTSD-10">
          <mxGeometry relative="1" as="geometry" />
        </mxCell>
        <mxCell id="G9btN0Gx6x8trBFtPTSD-13" value="" style="edgeStyle=orthogonalEdgeStyle;rounded=0;orthogonalLoop=1;jettySize=auto;html=1;" edge="1" parent="WIyWlLk6GJQsqaUBKTNV-1" source="G9btN0Gx6x8trBFtPTSD-9" target="G9btN0Gx6x8trBFtPTSD-12">
          <mxGeometry relative="1" as="geometry" />
        </mxCell>
        <mxCell id="G9btN0Gx6x8trBFtPTSD-15" value="" style="edgeStyle=orthogonalEdgeStyle;rounded=0;orthogonalLoop=1;jettySize=auto;html=1;" edge="1" parent="WIyWlLk6GJQsqaUBKTNV-1" source="G9btN0Gx6x8trBFtPTSD-9" target="G9btN0Gx6x8trBFtPTSD-14">
          <mxGeometry relative="1" as="geometry" />
        </mxCell>
        <mxCell id="G9btN0Gx6x8trBFtPTSD-18" value="" style="edgeStyle=orthogonalEdgeStyle;rounded=0;orthogonalLoop=1;jettySize=auto;html=1;" edge="1" parent="WIyWlLk6GJQsqaUBKTNV-1" source="G9btN0Gx6x8trBFtPTSD-9" target="G9btN0Gx6x8trBFtPTSD-17">
          <mxGeometry relative="1" as="geometry" />
        </mxCell>
        <mxCell id="G9btN0Gx6x8trBFtPTSD-20" value="" style="edgeStyle=orthogonalEdgeStyle;rounded=0;orthogonalLoop=1;jettySize=auto;html=1;" edge="1" parent="WIyWlLk6GJQsqaUBKTNV-1" source="G9btN0Gx6x8trBFtPTSD-9" target="G9btN0Gx6x8trBFtPTSD-19">
          <mxGeometry relative="1" as="geometry" />
        </mxCell>
        <mxCell id="G9btN0Gx6x8trBFtPTSD-9" value="To Do" style="rounded=1;whiteSpace=wrap;html=1;shape=ellipse;perimeter=ellipsePerimeter;aspect=fixed;" vertex="1" parent="WIyWlLk6GJQsqaUBKTNV-1">
          <mxGeometry x="390" y="80" width="120" height="60" as="geometry" />
        </mxCell>
        <mxCell id="G9btN0Gx6x8trBFtPTSD-10" value="Last Modified" style="rounded=1;whiteSpace=wrap;html=1;" vertex="1" parent="WIyWlLk6GJQsqaUBKTNV-1">
          <mxGeometry x="390" y="370" width="120" height="60" as="geometry" />
        </mxCell>
        <mxCell id="G9btN0Gx6x8trBFtPTSD-12" value="Date Created" style="whiteSpace=wrap;html=1;rounded=1;" vertex="1" parent="WIyWlLk6GJQsqaUBKTNV-1">
          <mxGeometry x="590" y="180" width="120" height="60" as="geometry" />
        </mxCell>
        <mxCell id="G9btN0Gx6x8trBFtPTSD-14" value="Completed" style="whiteSpace=wrap;html=1;rounded=1;" vertex="1" parent="WIyWlLk6GJQsqaUBKTNV-1">
          <mxGeometry x="190" y="180" width="120" height="60" as="geometry" />
        </mxCell>
        <mxCell id="G9btN0Gx6x8trBFtPTSD-17" value="Todo" style="whiteSpace=wrap;html=1;rounded=1;" vertex="1" parent="WIyWlLk6GJQsqaUBKTNV-1">
          <mxGeometry x="480" y="260" width="120" height="60" as="geometry" />
        </mxCell>
        <mxCell id="G9btN0Gx6x8trBFtPTSD-19" value="id" style="whiteSpace=wrap;html=1;rounded=1;" vertex="1" parent="WIyWlLk6GJQsqaUBKTNV-1">
          <mxGeometry x="290" y="260" width="120" height="60" as="geometry" />
        </mxCell>
        <mxCell id="G9btN0Gx6x8trBFtPTSD-21" value="View All Todos" style="whiteSpace=wrap;html=1;shadow=0;strokeWidth=1;spacing=6;spacingTop=-4;" vertex="1" parent="WIyWlLk6GJQsqaUBKTNV-1">
          <mxGeometry x="-260" y="545" width="120" height="60" as="geometry" />
        </mxCell>
        <mxCell id="G9btN0Gx6x8trBFtPTSD-23" value="View by Id" style="whiteSpace=wrap;html=1;shadow=0;strokeWidth=1;spacing=6;spacingTop=-4;" vertex="1" parent="WIyWlLk6GJQsqaUBKTNV-1">
          <mxGeometry x="-180" y="620" width="120" height="60" as="geometry" />
        </mxCell>
        <mxCell id="G9btN0Gx6x8trBFtPTSD-25" value="View completed todos" style="whiteSpace=wrap;html=1;shadow=0;strokeWidth=1;spacing=6;spacingTop=-4;" vertex="1" parent="WIyWlLk6GJQsqaUBKTNV-1">
          <mxGeometry x="-510" y="620" width="120" height="60" as="geometry" />
        </mxCell>
        <mxCell id="G9btN0Gx6x8trBFtPTSD-27" value="View last modified" style="whiteSpace=wrap;html=1;shadow=0;strokeWidth=1;spacing=6;spacingTop=-4;" vertex="1" parent="WIyWlLk6GJQsqaUBKTNV-1">
          <mxGeometry x="-345" y="650" width="120" height="60" as="geometry" />
        </mxCell>
        <mxCell id="G9btN0Gx6x8trBFtPTSD-30" value="z" style="edgeStyle=orthogonalEdgeStyle;rounded=0;orthogonalLoop=1;jettySize=auto;html=1;exitX=0.25;exitY=0;exitDx=0;exitDy=0;entryX=0;entryY=0.25;entryDx=0;entryDy=0;" edge="1" parent="WIyWlLk6GJQsqaUBKTNV-1" source="G9btN0Gx6x8trBFtPTSD-23" target="G9btN0Gx6x8trBFtPTSD-23">
          <mxGeometry relative="1" as="geometry" />
        </mxCell>
        <mxCell id="G9btN0Gx6x8trBFtPTSD-31" value="View by todo" style="whiteSpace=wrap;html=1;shadow=0;strokeWidth=1;spacing=6;spacingTop=-4;" vertex="1" parent="WIyWlLk6GJQsqaUBKTNV-1">
          <mxGeometry x="-430" y="545" width="120" height="60" as="geometry" />
        </mxCell>
        <mxCell id="G9btN0Gx6x8trBFtPTSD-34" value="change completed" style="whiteSpace=wrap;html=1;shadow=0;strokeWidth=1;spacing=6;spacingTop=-4;" vertex="1" parent="WIyWlLk6GJQsqaUBKTNV-1">
          <mxGeometry x="-740" y="584.5" width="120" height="60" as="geometry" />
        </mxCell>
        <mxCell id="G9btN0Gx6x8trBFtPTSD-37" value="Change todo" style="whiteSpace=wrap;html=1;shadow=0;strokeWidth=1;spacing=6;spacingTop=-4;" vertex="1" parent="WIyWlLk6GJQsqaUBKTNV-1">
          <mxGeometry x="-820" y="700" width="120" height="60" as="geometry" />
        </mxCell>
        <mxCell id="G9btN0Gx6x8trBFtPTSD-39" value="Delete Todo" style="whiteSpace=wrap;html=1;shadow=0;strokeWidth=1;spacing=6;spacingTop=-4;" vertex="1" parent="WIyWlLk6GJQsqaUBKTNV-1">
          <mxGeometry x="-670" y="700" width="120" height="60" as="geometry" />
        </mxCell>
      </root>
    </mxGraphModel>
  </diagram>
</mxfile>
